<svg width="48" height="48" viewBox="0 0 48 48" fill="none" xmlns="http://www.w3.org/2000/svg">
<path fill-rule="evenodd" clip-rule="evenodd" d="M40 5.75735C39.4052 5.75735 38.8348 5.99363 38.4142 6.41421L19.8059 25.0225L18.7487 29.2513L22.9775 28.1941L41.5858 9.58578C42.0064 9.1652 42.2426 8.59478 42.2426 8C42.2426 7.40521 42.0064 6.83479 41.5858 6.41421C41.1652 5.99363 40.5948 5.75735 40 5.75735ZM35.5858 3.58578C36.7565 2.41506 38.3443 1.75735 40 1.75735C41.6557 1.75735 43.2435 2.41506 44.4142 3.58578C45.5849 4.7565 46.2426 6.34434 46.2426 8C46.2426 9.65565 45.5849 11.2435 44.4142 12.4142L25.4142 31.4142C25.1579 31.6705 24.8367 31.8524 24.4851 31.9403L16.4851 33.9403C15.8035 34.1107 15.0825 33.911 14.5858 33.4142C14.089 32.9174 13.8893 32.1965 14.0597 31.5149L16.0597 23.5149C16.1476 23.1633 16.3295 22.8421 16.5858 22.5858L35.5858 3.58578ZM3.75736 7.75735C4.88258 6.63214 6.4087 6 8 6H22C23.1046 6 24 6.89543 24 8C24 9.10456 23.1046 10 22 10H8C7.46957 10 6.96086 10.2107 6.58579 10.5858C6.21071 10.9609 6 11.4696 6 12V40C6 40.5304 6.21071 41.0391 6.58579 41.4142C6.96086 41.7893 7.46957 42 8 42H36C36.5304 42 37.0391 41.7893 37.4142 41.4142C37.7893 41.0391 38 40.5304 38 40V26C38 24.8954 38.8954 24 40 24C41.1046 24 42 24.8954 42 26V40C42 41.5913 41.3679 43.1174 40.2426 44.2426C39.1174 45.3679 37.5913 46 36 46H8C6.4087 46 4.88258 45.3679 3.75736 44.2426C2.63214 43.1174 2 41.5913 2 40V12C2 10.4087 2.63214 8.88257 3.75736 7.75735Z" fill="#1E1E1E"/>
</svg>
