<svg width="40" height="40" viewBox="0 0 40 40" fill="none" xmlns="http://www.w3.org/2000/svg">
<path d="M18.3335 6.66667H6.66683C5.78277 6.66667 4.93493 7.01786 4.30981 7.64298C3.68469 8.2681 3.3335 9.11595 3.3335 10V33.3333C3.3335 34.2174 3.68469 35.0652 4.30981 35.6904C4.93493 36.3155 5.78277 36.6667 6.66683 36.6667H30.0002C30.8842 36.6667 31.7321 36.3155 32.3572 35.6904C32.9823 35.0652 33.3335 34.2174 33.3335 33.3333V21.6667M30.8335 4.16667C31.4965 3.50363 32.3958 3.13113 33.3335 3.13113C34.2712 3.13113 35.1705 3.50363 35.8335 4.16667C36.4965 4.82971 36.869 5.72899 36.869 6.66667C36.869 7.60435 36.4965 8.50363 35.8335 9.16667L20.0002 25L13.3335 26.6667L15.0002 20L30.8335 4.16667Z" stroke="#1E1E1E" stroke-width="3.5" stroke-linecap="round" stroke-linejoin="round"/>
</svg>
