<svg width="40" height="40" viewBox="0 0 40 40" fill="none" xmlns="http://www.w3.org/2000/svg">
<g clip-path="url(#clip0_5004_15984)">
<path d="M28.3334 35V31.6667C28.3334 29.8986 27.631 28.2029 26.3808 26.9526C25.1306 25.7024 23.4349 25 21.6667 25H8.33341C6.5653 25 4.86961 25.7024 3.61937 26.9526C2.36913 28.2029 1.66675 29.8986 1.66675 31.6667V35M38.3334 35V31.6667C38.3323 30.1895 37.8407 28.7546 36.9357 27.5872C36.0307 26.4198 34.7636 25.5859 33.3334 25.2167M26.6667 5.21667C28.1008 5.58384 29.3718 6.41783 30.2795 7.58718C31.1871 8.75653 31.6798 10.1947 31.6798 11.675C31.6798 13.1553 31.1871 14.5935 30.2795 15.7628C29.3718 16.9322 28.1008 17.7662 26.6667 18.1333M21.6667 11.6667C21.6667 15.3486 18.682 18.3333 15.0001 18.3333C11.3182 18.3333 8.33342 15.3486 8.33342 11.6667C8.33342 7.98477 11.3182 5 15.0001 5C18.682 5 21.6667 7.98477 21.6667 11.6667Z" stroke="#1E1E1E" stroke-width="3.5" stroke-linecap="round" stroke-linejoin="round"/>
</g>
<defs>
<clipPath id="clip0_5004_15984">
<rect width="40" height="40" fill="white"/>
</clipPath>
</defs>
</svg>
