<svg width="40" height="40" viewBox="0 0 40 40" fill="none" xmlns="http://www.w3.org/2000/svg">
<g clip-path="url(#clip0_5004_15268)">
<path d="M20.0001 25.0001C22.7615 25.0001 25.0001 22.7615 25.0001 20.0001C25.0001 17.2387 22.7615 15.0001 20.0001 15.0001C17.2387 15.0001 15.0001 17.2387 15.0001 20.0001C15.0001 22.7615 17.2387 25.0001 20.0001 25.0001Z" stroke="#1E1E1E" stroke-width="3.5" stroke-linecap="round" stroke-linejoin="round"/>
<path d="M32.3334 25.0001C32.1116 25.5028 32.0454 26.0604 32.1434 26.6011C32.2414 27.1417 32.4992 27.6406 32.8834 28.0334L32.9834 28.1334C33.2933 28.443 33.5392 28.8106 33.7069 29.2153C33.8747 29.6199 33.961 30.0537 33.961 30.4917C33.961 30.9298 33.8747 31.3636 33.7069 31.7682C33.5392 32.1729 33.2933 32.5405 32.9834 32.8501C32.6738 33.16 32.3062 33.4059 31.9015 33.5736C31.4969 33.7414 31.0631 33.8277 30.6251 33.8277C30.187 33.8277 29.7533 33.7414 29.3486 33.5736C28.944 33.4059 28.5763 33.16 28.2667 32.8501L28.1667 32.7501C27.7739 32.3659 27.2751 32.1081 26.7344 32.0101C26.1937 31.912 25.6361 31.9782 25.1334 32.2001C24.6405 32.4113 24.2201 32.7622 23.9239 33.2093C23.6278 33.6565 23.4689 34.1804 23.4667 34.7167V35.0001C23.4667 35.8841 23.1156 36.732 22.4904 37.3571C21.8653 37.9822 21.0175 38.3334 20.1334 38.3334C19.2494 38.3334 18.4015 37.9822 17.7764 37.3571C17.1513 36.732 16.8001 35.8841 16.8001 35.0001V34.8501C16.7872 34.2984 16.6086 33.7634 16.2876 33.3146C15.9666 32.8658 15.518 32.5239 15.0001 32.3334C14.4974 32.1116 13.9398 32.0454 13.3991 32.1434C12.8584 32.2414 12.3595 32.4992 11.9667 32.8834L11.8667 32.9834C11.5572 33.2933 11.1895 33.5392 10.7849 33.7069C10.3802 33.8747 9.94647 33.961 9.50841 33.961C9.07036 33.961 8.63661 33.8747 8.23195 33.7069C7.82729 33.5392 7.45966 33.2933 7.15008 32.9834C6.84016 32.6738 6.5943 32.3062 6.42655 31.9015C6.2588 31.4969 6.17246 31.0631 6.17246 30.6251C6.17246 30.187 6.2588 29.7533 6.42655 29.3486C6.5943 28.944 6.84016 28.5763 7.15008 28.2667L7.25008 28.1667C7.63431 27.7739 7.89206 27.2751 7.99009 26.7344C8.08812 26.1937 8.02194 25.6361 7.80008 25.1334C7.58881 24.6405 7.23801 24.2201 6.79086 23.9239C6.34371 23.6278 5.81973 23.4689 5.28341 23.4667H5.00008C4.11603 23.4667 3.26818 23.1156 2.64306 22.4904C2.01794 21.8653 1.66675 21.0175 1.66675 20.1334C1.66675 19.2494 2.01794 18.4015 2.64306 17.7764C3.26818 17.1513 4.11603 16.8001 5.00008 16.8001H5.15008C5.70174 16.7872 6.23676 16.6086 6.68558 16.2876C7.1344 15.9666 7.47627 15.518 7.66675 15.0001C7.88861 14.4974 7.95479 13.9398 7.85675 13.3991C7.75872 12.8584 7.50098 12.3595 7.11675 11.9667L7.01675 11.8667C6.70683 11.5572 6.46096 11.1895 6.29322 10.7849C6.12547 10.3802 6.03913 9.94647 6.03913 9.50841C6.03913 9.07036 6.12547 8.63661 6.29322 8.23195C6.46096 7.82729 6.70683 7.45966 7.01675 7.15008C7.32632 6.84016 7.69395 6.5943 8.09861 6.42655C8.50327 6.2588 8.93703 6.17246 9.37508 6.17246C9.81313 6.17246 10.2469 6.2588 10.6515 6.42655C11.0562 6.5943 11.4238 6.84016 11.7334 7.15008L11.8334 7.25008C12.2262 7.63431 12.7251 7.89206 13.2658 7.99009C13.8064 8.08812 14.3641 8.02194 14.8667 7.80008H15.0001C15.493 7.58881 15.9134 7.23801 16.2096 6.79086C16.5057 6.34371 16.6646 5.81973 16.6667 5.28341V5.00008C16.6667 4.11603 17.0179 3.26818 17.6431 2.64306C18.2682 2.01794 19.116 1.66675 20.0001 1.66675C20.8841 1.66675 21.732 2.01794 22.3571 2.64306C22.9822 3.26818 23.3334 4.11603 23.3334 5.00008V5.15008C23.3356 5.68639 23.4945 6.21037 23.7906 6.65752C24.0867 7.10467 24.5071 7.45548 25.0001 7.66675C25.5028 7.88861 26.0604 7.95479 26.6011 7.85675C27.1417 7.75872 27.6406 7.50098 28.0334 7.11675L28.1334 7.01675C28.443 6.70683 28.8106 6.46096 29.2153 6.29322C29.6199 6.12547 30.0537 6.03913 30.4917 6.03913C30.9298 6.03913 31.3636 6.12547 31.7682 6.29322C32.1729 6.46096 32.5405 6.70683 32.8501 7.01675C33.16 7.32632 33.4059 7.69395 33.5736 8.09861C33.7414 8.50327 33.8277 8.93703 33.8277 9.37508C33.8277 9.81313 33.7414 10.2469 33.5736 10.6515C33.4059 11.0562 33.16 11.4238 32.8501 11.7334L32.7501 11.8334C32.3659 12.2262 32.1081 12.7251 32.0101 13.2658C31.912 13.8064 31.9782 14.3641 32.2001 14.8667V15.0001C32.4113 15.493 32.7622 15.9134 33.2093 16.2096C33.6565 16.5057 34.1804 16.6646 34.7167 16.6667H35.0001C35.8841 16.6667 36.732 17.0179 37.3571 17.6431C37.9822 18.2682 38.3334 19.116 38.3334 20.0001C38.3334 20.8841 37.9822 21.732 37.3571 22.3571C36.732 22.9822 35.8841 23.3334 35.0001 23.3334H34.8501C34.3138 23.3356 33.7898 23.4945 33.3426 23.7906C32.8955 24.0867 32.5447 24.5071 32.3334 25.0001Z" stroke="#1E1E1E" stroke-width="3.5" stroke-linecap="round" stroke-linejoin="round"/>
</g>
<defs>
<clipPath id="clip0_5004_15268">
<rect width="40" height="40" fill="white"/>
</clipPath>
</defs>
</svg>
