<svg width="1050" height="913" viewBox="0 0 1050 913" fill="none" xmlns="http://www.w3.org/2000/svg">
<path d="M291.876 99.7374C347.159 109.124 445.863 183.925 557.8 243.357C670.456 303.386 797.063 348.643 826.892 397.205C856.002 445.171 788.601 496.158 760.646 539.339C732.241 581.639 802.762 667.682 814.483 720.474C825.485 772.669 692.615 755.28 654.173 737.571C615.73 719.863 611.43 651.141 490.006 599.037C369.301 547.53 214.568 548.352 166.569 513.595C119.021 479.718 177.487 409.665 203.517 352.22C229.547 294.775 222.873 250.224 224.881 199.196C226.89 148.168 237.312 90.9472 291.876 99.7374Z" fill="#F3B13F"/>
<path d="M895.753 395.666C933.22 440.581 914.011 484.632 910.413 533.399C906.299 581.955 917.279 635.016 877.365 660.199C837.859 685.823 746.943 683.358 667.739 653.001C588.019 622.434 520.011 563.974 454.253 515.216C389.119 466.437 281.829 493.901 250 454.029C218.688 414.368 262.837 307.37 277.255 264.385C291.566 221.631 320.552 176.349 388.573 175.247C456.595 174.146 563.651 217.227 664.047 261.435C764.443 305.644 858.178 350.981 895.753 395.666Z" fill="#D64D2E"/>
<g filter="url(#filter0_i_5207_6349)">
<path d="M414 381.841C397.055 309.388 458.011 209.12 523.2 163.342C587.748 117.251 664.99 92.68 714.723 145.802C764.199 198.434 785.783 328.937 840.138 401.819C894.108 474.877 980.977 491.472 1007 525.708C1033.28 560.434 998.713 612.802 959.652 642.919C920.592 673.036 876.908 679.747 837.575 676.554C798.243 673.361 763.389 659.599 726.612 641.25C690.091 623.39 688.786 575.491 626.5 525.709C564.341 475.26 431.586 454.607 414 381.841Z" fill="#1D4F8B"/>
</g>
<defs>
<filter id="filter0_i_5207_6349" x="411.133" y="115.753" width="605.055" height="577.524" filterUnits="userSpaceOnUse" color-interpolation-filters="sRGB">
<feFlood flood-opacity="0" result="BackgroundImageFix"/>
<feBlend mode="normal" in="SourceGraphic" in2="BackgroundImageFix" result="shape"/>
<feColorMatrix in="SourceAlpha" type="matrix" values="0 0 0 0 0 0 0 0 0 0 0 0 0 0 0 0 0 0 127 0" result="hardAlpha"/>
<feMorphology radius="4" operator="dilate" in="SourceAlpha" result="effect1_innerShadow_5207_6349"/>
<feOffset dy="16"/>
<feGaussianBlur stdDeviation="16"/>
<feComposite in2="hardAlpha" operator="arithmetic" k2="-1" k3="1"/>
<feColorMatrix type="matrix" values="0 0 0 0 0.0470588 0 0 0 0 0.0470588 0 0 0 0 0.0509804 0 0 0 0.1 0"/>
<feBlend mode="normal" in2="shape" result="effect1_innerShadow_5207_6349"/>
</filter>
</defs>
</svg>
