<svg width="83" height="58" viewBox="0 0 83 58" fill="none" xmlns="http://www.w3.org/2000/svg">
<path fill-rule="evenodd" clip-rule="evenodd" d="M57 26.9C57 33.8 57.3 34 66.1 34C73.5 34 74.1 32.8 70.3 26.1L67.5 21H57V26.9ZM68.8 26.9C70 29 71 31 71 31.4C71 31.7 68.3 32 65 32H59V23H62.8C66.2 23 66.9 23.4 68.8 26.9Z" fill="white"/>
<path d="M63.8002 37.7C62.8002 37.9 61.2002 37.9 60.3002 37.7C59.3002 37.4 60.1002 37.2 62.0002 37.2C63.9002 37.2 64.7002 37.4 63.8002 37.7Z" fill="white"/>
<path d="M23 46C23 46.5 24.4 47 26 47C27.7 47 29 46.5 29 46C29 45.4 27.7 45 26 45C24.4 45 23 45.4 23 46Z" fill="white"/>
<path d="M41 47C35.7 47 32 46.6 32 46C32 45.4 35.7 45 41 45C46.3 45 50 45.4 50 46C50 46.6 46.3 47 41 47Z" fill="white"/>
<path fill-rule="evenodd" clip-rule="evenodd" d="M11.4003 49.5C10.6003 51.6 11.6003 54 13.3003 54C15.3003 54 17.3003 51.3 16.6003 49.5C15.9003 47.6 12.1003 47.5 11.4003 49.5ZM15.0003 51C15.0003 51.5 14.3003 52 13.5003 52C12.7003 52 12.0003 51.5 12.0003 51C12.0003 50.4 12.7003 50 13.5003 50C14.3003 50 15.0003 50.4 15.0003 51Z" fill="white"/>
<path fill-rule="evenodd" clip-rule="evenodd" d="M64.3003 54C62.6003 54 61.6003 51.6 62.4003 49.5C63.1003 47.5 66.9003 47.6 67.6003 49.5C68.3003 51.3 66.3003 54 64.3003 54ZM64.5003 52C65.3003 52 66.0003 51.6 66.0003 51.1C66.0003 49.8 64.4003 48.9 63.6003 49.7C62.5003 50.8 63.0003 52 64.5003 52Z" fill="white"/>
<path fill-rule="evenodd" clip-rule="evenodd" d="M17 20H7V40H0V46C0 49.6811 0 51.1038 0.692771 51.6536C1.12919 52 1.84054 52 3 52C4.9 52 6.3 52.7 7 53.9C8.4947 56.7897 8.40069 56.8 3.84863 57.2947L3.8 57.3C1.4 57.5 18.2 57.6 41 57.6C63.8 57.6 79.9 57.5 76.8 57.3C71 56.9 70.5 56.5 71.6 53.6C72.1 52.3 73.2 52.1 77.1 52.6C81.7 53.2 81.9 53.1 82.6 50.5C83 48.9 82.8 46.9 82.1 45.9C81.5 44.9 81 41.8 81 39.1C81 34.8 80.3 33.1 75 25.1L69 15.9L52.5 16.5L52.2 28.2C52 37.8 51.7 40 50.5 40C49.3 40 49 38.1 49 30V20H39V0H17V20ZM22.8 6.8C23.1 11.4 23.4 12.1 24.8 11.4C27 10.5 29 10.5 31.2 11.4C32.6 12.1 32.9 11.4 33.2 6.8C33.4 2.7 33.9 1.4 35.3 1.2C36.8 0.9 37 1.8 37 10.4V20H19V10.4C19 1.8 19.2 0.9 20.8 1.2C22.1 1.4 22.6 2.7 22.8 6.8ZM31.8 5.10003C31.9475 6.87051 32.0225 7.77027 31.6086 8.21562C31.1809 8.67581 30.2311 8.65082 28.3 8.6C25 8.6 24.5 8.2 24.3 6C23.9 1.8 24.7 0.8 28.2 1.2C31.2 1.5 31.5 1.80003 31.8 5.10003ZM73.8 26.4C78.2 33.2 79 35.1 79 39.1C79 42.3 78.5 44 77.5 44.4C76.7 44.7 76 46.1 76 47.5C76 50.9 72.7 50.9 71.2 47.5C68.8 42.2 60.6 42.2 58.2 47.6C57.5 48.9 56.4 50 55.5 50C54.2 50 54 47.7 54 34V17.9L68.5 18.5L73.8 26.4ZM13 27.5V33L15.4 31.5C17.7 30 18.1 30 20.4 31.5L23 33.2V27.6C23 22.7 23.2 22 25 22C26.9 22 27 22.7 27 31V40H9V31C9 22.7 9.1 22 11 22C12.8 22 13 22.7 13 27.5ZM21 25.3C21 28.4 20.8 28.6 17.5 28.7C14.2 28.8 14 28.6 14 25.4C14 22.2 14.2 22 17.5 22C20.8 22 21 22.2 21 25.3ZM33 27.6V33.2L35.6 31.5C37.9 30 38.3 30 40.6 31.5L43 33V27.5C43 22.7 43.2 22 45 22C46.9 22 47 22.7 47 31V40H29V31C29 22.7 29.1 22 31 22C32.8 22 33 22.7 33 27.6ZM42 25.4C42 28.6 41.8 28.8 38.5 28.7C35.2 28.6 35 28.4 35 25.3C35 22.2 35.2 22 38.5 22C41.8 22 42 22.2 42 25.4ZM52.4 45.1C52.7 46.8 52.7 48.6 52.4 49.1C52.1 49.6 45 50 36.6 50H21.3L20.2 47.5C17.8 42.2 9.6 42.2 7.2 47.6C6.5 49 5.2 50 4 50C2.3 50 2 49.3 2 46V42H51.8L52.4 45.1ZM17.2 46.7C19.7 49 19.5 53.5 16.8 55.4C13.8 57.5 12.4 57.4 10 55C7.3 52.3 7.4 48.5 10.2 46.6C13.1 44.6 14.9 44.6 17.2 46.7ZM68.2 46.7C70.7 49 70.5 53.5 67.8 55.4C64.8 57.5 63.4 57.4 61 55C58.3 52.3 58.4 48.5 61.2 46.6C64.1 44.6 65.9 44.6 68.2 46.7ZM80.8 48.7C80.6 50.4 79.9 51.5 79 51.5C78.1 51.5 77.4 50.4 77.2 48.7C76.9 46.5 77.3 46 79 46C80.7 46 81.1 46.5 80.8 48.7ZM58 53.9C58.5 55 59 56.1 59 56.4C59 56.7 50.2 57 39.5 57C28.3 57 20 56.6 20 56.1C20 52.1 20.7 52 39.1 52C55.7 52 57 52.1 58 53.9Z" fill="white"/>
<path d="M4.79997 1.69999C6.59997 1.89999 9.29997 1.89999 10.8 1.69999C12.3 1.49999 10.8 1.29999 7.49997 1.29999C4.19997 1.29999 2.99997 1.49999 4.79997 1.69999Z" fill="white"/>
<path d="M10.8001 14.7C9.20005 14.9 6.80005 14.9 5.30005 14.7C3.70005 14.5 5.00005 14.3 8.00005 14.3C11.0001 14.3 12.3001 14.5 10.8001 14.7Z" fill="white"/>
</svg>
