<svg width="316" height="71" viewBox="0 0 316 71" fill="none" xmlns="http://www.w3.org/2000/svg">
<path fill-rule="evenodd" clip-rule="evenodd" d="M104 35.5C104 58.5 104.4 71 105 71C105.6 71 106 58.5 106 35.5C106 12.5 105.6 0 105 0C104.4 0 104 12.5 104 35.5ZM127.8 14.1C125.2 15.6 124.4 21.5 126.4 24.5C127.8 26.6 128.9 27 132.5 27C135.2 27 137 26.5 137 25.9C137 25.2 135.9 25 134.3 25.3C130.1 26.1 128 24.5 128 20.6C128 16.8 129.9 14.8 133.2 15C136.8 15.3 137.6 15 136 14C134.1 12.8 130 12.8 127.8 14.1ZM144.5 15.3C139.6 15.1 139.4 15 141 14C143.3 12.5 147.7 12.8 149.4 14.6C150.3 15.5 151 17.8 151 20C151 22.1 151.2 24.5 151.5 25.2C151.9 26.2 150.7 26.6 146.6 26.8C142 27 140.9 26.7 140 25C138.3 21.7 140.4 19 144.6 19C147.4 19 148.1 18.7 147.8 17.2C147.6 16.1 146.4 15.4 144.5 15.3ZM148.3 23.1C148.6 22 148.5 20.9 148.2 20.6C146.5 18.8 142 20.7 142 23.1C142 25.8 147.6 25.8 148.3 23.1ZM172.3 14C170.3 14.8 170 15.7 170 19.8C170 25.9 171.4 27.2 177.2 26.8C181.4 26.5 181.5 26.4 181.8 22.7C182.1 19.2 182 19 179.1 19C177.4 19 176 19.4 176 20C176 20.5 176.7 21 177.5 21C179.3 21 179.5 24.6 177.8 25.3C177.1 25.5 175.5 25.4 174.3 24.9C172.5 24.3 172 23.3 172 20.7C172 16.5 174 14.6 178 15.2C181.2 15.7 182.1 14.6 179.4 13.6C177.3 12.8 175 12.9 172.3 14ZM185.4 24.5C183.2 21.1 184.3 15.2 187.3 14C193.2 11.6 198 14.5 198 20.4C198 24.9 195.8 27 191 27C187.9 27 186.7 26.5 185.4 24.5ZM189.5 25.2C193.2 26.9 195.2 24.7 194.8 19.6C194.5 15.8 194.2 15.5 191.5 15.2C187.6 14.8 187 15.5 187 20.2C187 23.3 187.5 24.3 189.5 25.2ZM156 20.4C156 24.1 156.4 27 157 27C157.6 27 158 25.9 158 24.5C158 23.1 158.4 22 158.8 22C159.3 22 160.7 23.1 162 24.5C163.3 25.9 165 27 165.8 27C167 27 166.8 26.4 165.1 24.6C163.2 22.6 163.1 22.2 164.5 21.6C165.6 21.2 166 20 165.8 17.8C165.5 14.6 165.3 14.5 160.8 14.2L156 13.9V20.4ZM162.9 15.9C165 17.2 163.4 20 160.5 20C158.5 20 158 19.5 158 17.5C158 14.9 160.2 14.2 162.9 15.9ZM7 25H17V5H39V25H49V35C49 43.1 49.3 45 50.5 45C51.7 45 52 42.8 52.2 33.2L52.5 21.5L69 20.9L75 30.1C80.3 38.1 81 39.8 81 44.1C81 46.8 81.5 49.9 82.1 50.9C82.8 51.9 83 53.9 82.6 55.5C81.9 58.1 81.7 58.2 77.1 57.6C73.2 57.1 72.1 57.3 71.6 58.6C70.5 61.5 71 61.9 76.8 62.3C79.9 62.5 63.8 62.6 41 62.6C18.2 62.6 1.4 62.5 3.8 62.3L3.84863 62.2947C8.40069 61.8 8.4947 61.7897 7 58.9C6.3 57.7 4.9 57 3 57C1.84054 57 1.12919 57 0.692771 56.6536C0 56.1038 0 54.6811 0 51V45H7V25ZM24.8 16.4C23.4 17.1 23.1 16.4 22.8 11.8C22.6 7.7 22.1 6.4 20.8 6.2C19.2 5.9 19 6.8 19 15.4V25H37V15.4C37 6.8 36.8 5.9 35.3 6.2C33.9 6.4 33.4 7.7 33.2 11.8C32.9 16.4 32.6 17.1 31.2 16.4C29 15.5 27 15.5 24.8 16.4ZM31.6086 13.2156C32.0225 12.7703 31.9475 11.8705 31.8 10.1C31.5 6.80003 31.2 6.5 28.2 6.2C24.7 5.8 23.9 6.8 24.3 11C24.5 13.2 25 13.6 28.3 13.6C30.2311 13.6508 31.1809 13.6758 31.6086 13.2156ZM79 44.1C79 40.1 78.2 38.2 73.8 31.4L68.5 23.5L54 22.9V39C54 52.7 54.2 55 55.5 55C56.4 55 57.5 53.9 58.2 52.6C60.6 47.2 68.8 47.2 71.2 52.5C72.7 55.9 76 55.9 76 52.5C76 51.1 76.7 49.7 77.5 49.4C78.5 49 79 47.3 79 44.1ZM13 38V32.5C13 27.7 12.8 27 11 27C9.1 27 9 27.7 9 36V45H27V36C27 27.7 26.9 27 25 27C23.2 27 23 27.7 23 32.6V38.2L20.4 36.5C18.1 35 17.7 35 15.4 36.5L13 38ZM17.5 33.7C20.8 33.6 21 33.4 21 30.3C21 27.2 20.8 27 17.5 27C14.2 27 14 27.2 14 30.4C14 33.6 14.2 33.8 17.5 33.7ZM33 38.2V32.6C33 27.7 32.8 27 31 27C29.1 27 29 27.7 29 36V45H47V36C47 27.7 46.9 27 45 27C43.2 27 43 27.7 43 32.5V38L40.6 36.5C38.3 35 37.9 35 35.6 36.5L33 38.2ZM38.5 33.7C41.8 33.8 42 33.6 42 30.4C42 27.2 41.8 27 38.5 27C35.2 27 35 27.2 35 30.3C35 33.4 35.2 33.6 38.5 33.7ZM52.4 54.1C52.7 53.6 52.7 51.8 52.4 50.1L51.8 47H2V51C2 54.3 2.3 55 4 55C5.2 55 6.5 54 7.2 52.6C9.6 47.2 17.8 47.2 20.2 52.5L21.3 55H36.6C45 55 52.1 54.6 52.4 54.1ZM16.8 60.4C19.5 58.5 19.7 54 17.2 51.7C14.9 49.6 13.1 49.6 10.2 51.6C7.4 53.5 7.3 57.3 10 60C12.4 62.4 13.8 62.5 16.8 60.4ZM67.8 60.4C70.5 58.5 70.7 54 68.2 51.7C65.9 49.6 64.1 49.6 61.2 51.6C58.4 53.5 58.3 57.3 61 60C63.4 62.4 64.8 62.5 67.8 60.4ZM79 56.5C79.9 56.5 80.6 55.4 80.8 53.7C81.1 51.5 80.7 51 79 51C77.3 51 76.9 51.5 77.2 53.7C77.4 55.4 78.1 56.5 79 56.5ZM59 61.4C59 61.1 58.5 60 58 58.9C57 57.1 55.7 57 39.1 57C20.7 57 20 57.1 20 61.1C20 61.6 28.3 62 39.5 62C50.2 62 59 61.7 59 61.4ZM57 31.9C57 38.8 57.3 39 66.1 39C73.5 39 74.1 37.8 70.3 31.1L67.5 26H57V31.9ZM68.8 31.9C70 34 71 36 71 36.4C71 36.7 68.3 37 65 37H59V28H62.8C66.2 28 66.9 28.4 68.8 31.9ZM63.8002 42.7C62.8002 42.9 61.2002 42.9 60.3002 42.7C59.3002 42.4 60.1002 42.2 62.0002 42.2C63.9002 42.2 64.7002 42.4 63.8002 42.7ZM26 52C24.4 52 23 51.5 23 51C23 50.4 24.4 50 26 50C27.7 50 29 50.4 29 51C29 51.5 27.7 52 26 52ZM41 52C35.7 52 32 51.6 32 51C32 50.4 35.7 50 41 50C46.3 50 50 50.4 50 51C50 51.6 46.3 52 41 52ZM13.3003 59C11.6003 59 10.6003 56.6 11.4003 54.5C12.1003 52.5 15.9003 52.6 16.6003 54.5C17.3003 56.3 15.3003 59 13.3003 59ZM13.5003 57C14.3003 57 15.0003 56.5 15.0003 56C15.0003 55.4 14.3003 55 13.5003 55C12.7003 55 12.0003 55.4 12.0003 56C12.0003 56.5 12.7003 57 13.5003 57ZM64.3003 59C62.6003 59 61.6003 56.6 62.4003 54.5C63.1003 52.5 66.9003 52.6 67.6003 54.5C68.3003 56.3 66.3003 59 64.3003 59ZM64.5003 57C65.3003 57 66.0003 56.6 66.0003 56.1C66.0003 54.8 64.4003 53.9 63.6003 54.7C62.5003 55.8 63.0003 57 64.5003 57ZM4.79997 6.69999C6.59997 6.89999 9.29997 6.89999 10.8 6.69999C12.3 6.49999 10.8 6.29999 7.49997 6.29999C4.19997 6.29999 2.99997 6.49999 4.79997 6.69999ZM5.30005 19.7C6.80005 19.9 9.20005 19.9 10.8001 19.7C12.3001 19.5 11.0001 19.3 8.00005 19.3C5.00005 19.3 3.70005 19.5 5.30005 19.7ZM154.3 42.7C151.8 43.7 153.1 44.7 156.7 44.6C159.5 44.5 160.5 44.9 160.8 46.2C161 47.5 160.3 47.9 157.4 48.2C153 48.6 150.9 51 152.6 53.7C153.4 55 155.1 55.5 159.2 55.6L164.7 55.7L164.2 51.1C163.4 43.3 160 40.4 154.3 42.7ZM160.8 51.2C160.5 53.7999 156.5 54.9 154.6 53C153.8 52.2 154 51.5 155.4 50.4C158.5 48.2 161.2 48.6 160.8 51.2ZM184.3 48.7C182.4 47.3 182.7 44.3 184.8 43.1C186.8 41.9 189.2 41.7 191.4 42.6C194.1 43.6 193.2 44.5 189.3 44.5C184.4 44.5 184.2 46.8 188.9 48.4C196.2 50.8 195.2 56 187.4 56C185 56 183 55.5 183 55C183 54.4 184.6 54 186.7 54.2C189.6 54.4 190.5 54.1 190.8 52.8C191 51.6 190.3 50.9 188.3 50.4C186.8 50 184.9 49.3 184.3 48.7ZM212 44C209.6 46.4 209.3 52.2 211.6 54.4C212.5 55.3 214.8 56 217 56C222.1 56 224.6 52.8 223.6 47.5C222.5 42 216 40 212 44ZM219.8 45.2C220.5 45.9 221 47.9 221 49.7C221 52.3 220.4 53.3 218.5 54.2C216.4 55.1 215.6 55.1 214.3 53.7C212.7 52.2 212.2 47 213.5 45C214.4 43.6 218.3 43.7 219.8 45.2ZM258.5 44.3C253.6 44.1 253.4 44 255 43C257.3 41.5 261.7 41.8 263.4 43.6C264.3 44.5 265 46.8 265 49C265 51.1 265.2 53.5 265.5 54.2C265.9 55.2 264.7 55.6 260.7 55.8C254.2 56.1 252 54.4 253.8 50.5C254.7 48.5 255.7 48 258.6 48C261.4 48 262.1 47.7 261.8 46.2C261.6 45.1 260.4 44.4 258.5 44.3ZM259 54C261.5 54 262 53.6 262 51.5C262 49.8 261.5 49 260.3 49.1C257.2 49.2 256 50.1 256 52.1C256 53.5 256.7 54 259 54ZM290.2 43.6C288.5 44.7 288 46.1 288 49.4C288 54.7 289.3 56 294.5 56C299.7 56 301 54.7 301 49.4C301 44.8 298.5 42 294.5 42C293.4 42 291.4 42.7 290.2 43.6ZM298.1 46.4C300.5 51.6 296.6 56.5 292 54C289.7 52.8 289.2 47.2 291.2 45.2C293.3 43.1 296.9 43.8 298.1 46.4ZM128.8 50.3C128.5 45.2 128.2 44.5 126 43.9C124.4 43.5 125.9 43.2 130 43.2C133.6 43.3 135.3 43.5 133.8 43.7C131.1 44.1 131 44.4 131 50.1C131 57.7 129.2 57.8 128.8 50.3ZM138 49.4C138 54.6 138.3 56 139.5 56C140.4 56 141 55.1 141 53.5C141 52.1 141.4 51 141.8 51C142.3 51 143.7 52.1 145 53.5C146.3 54.9 148 56 148.8 56C150 56 149.8 55.4 148.1 53.6C146 51.4 146 51.1 147.5 50.3C148.6 49.6 149.1 48.4 148.8 46.4C148.5 43.7 148.2 43.5 143.3 43.2L138 42.9V49.4ZM145.8 46.7C146.1 48.6 145.7 49 143.6 49C141.5 49 141 48.5 141 46.4C141 44.3 141.4 43.9 143.3 44.2C144.7 44.4 145.6 45.3 145.8 46.7ZM169.4 56C168.3 56 168 54.5 168 49.5C168 44 168.3 43 169.8 43C170.7 43 172.6 44.8 174 47.3L176.5 51.5L176.8 47.2C177.3 40.5 179 42.3 179 49.5C179 57.3 177.5 58 173.9 51.7L171.5 47.5L171.2 51.7C171 54.6 170.4 56 169.4 56ZM197 49.4999C197 55.6999 198.5 58.5999 199.2 53.6999C199.4 51.9999 200.3 51.3999 202.7 51.1999C206.7 50.7999 208.4 48.7999 207.6 45.4999C207 43.1999 206.5 42.9999 202 42.9999H197V49.4999ZM204.8 46.6999C205.1 48.6999 204.7 48.9999 202.1 48.9999C199.8 48.9999 199 48.4999 199 47.1999C199 44.6999 200 43.8999 202.5 44.1999C203.7 44.3999 204.6 45.3999 204.8 46.6999ZM228.5 56C227.3 56 227 54.6 227 49.4V42.9L232.3 43.2C236.9 43.5 237.5 43.8 237.8 45.8C238 47.1 237.4 49 236.5 50C234.9 51.7 235 52 236.9 53.9C238.5 55.5 238.7 56 237.5 56C236.7 56 235 54.9 233.8 53.5C232.6 52.1 231.3 51 230.8 51C230.4 51 230 52.1 230 53.5C230 55.1 229.4 56 228.5 56ZM232.6 49C234.7 49 235.1 48.6 234.8 46.7C234.6 45.3 233.7 44.4 232.3 44.2C230.4 43.9 230 44.3 230 46.4C230 48.5 230.5 49 232.6 49ZM242 43.9C244.2 44.5 244.5 45.2 244.8 50.3C245.2 57.8 247 57.7 247 50.1C247 44.7 247.2 44.1 249.3 43.7C250.5 43.5 248.8 43.3 245.5 43.2C241.6 43.2 240.4 43.4 242 43.9ZM272 50.1C272 44.7 271.8 44.1 269.8 43.7C268.5 43.5 270.2 43.3 273.5 43.3C276.8 43.3 278.5 43.5 277.4 43.7C274.8 44.2 274.1 46.3 274.5 51.9C274.8 54.9 274.5 56 273.4 56C272.4 56 272 54.5 272 50.1ZM282 49.5C282 53.2 282.4 56 283 56C283.6 56 284 53.2 284 49.5C284 45.8 283.6 43 283 43C282.4 43 282 45.8 282 49.5ZM307.2 51.7001C306.7 58.5 305 56.7001 305 49.5C305 41.7001 306.6 40.9001 310.3 47C312.9 51.5 314 51.3 314 46.3C314 44.5 314.5 43 315 43C315.6 43 316 45.8 316 49.5C316 57.4001 314.6 57.9001 310.4 51.7001L307.5 47.5L307.2 51.7001Z" fill="white"/>
</svg>
