<svg width="1380" height="232" viewBox="0 0 1380 232" fill="none" xmlns="http://www.w3.org/2000/svg">
<path d="M154.755 25.098C154.755 26.918 153.845 27.828 152.025 27.828H45.282C44.554 27.828 44.19 28.192 44.19 28.92V110.547C44.19 111.275 44.554 111.639 45.282 111.639H122.268C124.088 111.639 124.998 112.549 124.998 114.369V116.553C124.998 118.373 124.088 119.283 122.268 119.283H45.282C44.554 119.283 44.19 119.647 44.19 120.375V202.548C44.19 203.276 44.554 203.64 45.282 203.64H152.025C153.845 203.64 154.755 204.55 154.755 206.37V208.554C154.755 210.374 153.845 211.284 152.025 211.284H38.73C36.91 211.284 36 210.374 36 208.554V22.914C36 21.094 36.91 20.184 38.73 20.184H152.025C153.845 20.184 154.755 21.094 154.755 22.914V25.098Z" fill="#1E1E1E"/>
<path d="M185.103 211.284C184.011 211.284 183.283 210.92 182.919 210.192C182.555 209.464 182.737 208.736 183.465 208.008L229.602 143.853C229.966 143.307 229.966 142.761 229.602 142.215L183.465 77.787C183.101 77.423 182.919 76.877 182.919 76.149C182.919 75.785 183.101 75.421 183.465 75.057C183.829 74.693 184.375 74.511 185.103 74.511H188.106C189.562 74.511 190.654 75.057 191.382 76.149L233.424 135.39C233.606 135.572 233.879 135.663 234.243 135.663C234.607 135.663 234.88 135.572 235.062 135.39L276.831 76.149C277.559 75.057 278.651 74.511 280.107 74.511H283.383C284.475 74.511 285.203 74.875 285.567 75.603C285.931 76.149 285.749 76.877 285.021 77.787L238.884 142.215C238.702 142.761 238.702 143.307 238.884 143.853L285.021 208.008C285.385 208.372 285.567 208.918 285.567 209.646C285.567 210.01 285.385 210.374 285.021 210.738C284.657 211.102 284.111 211.284 283.383 211.284H280.107C278.651 211.284 277.559 210.738 276.831 209.646L235.335 150.405C235.153 150.041 234.88 149.859 234.516 149.859C234.152 149.859 233.879 150.041 233.697 150.405L191.382 209.646C190.654 210.738 189.562 211.284 188.106 211.284H185.103Z" fill="#1E1E1E"/>
<path d="M363.476 72.327C378.946 72.327 390.503 76.422 398.147 84.612C405.791 92.62 409.613 103.631 409.613 117.645V208.554C409.613 210.374 408.703 211.284 406.883 211.284H404.153C402.333 211.284 401.423 210.374 401.423 208.554V194.358C401.423 193.994 401.241 193.721 400.877 193.539C400.695 193.357 400.422 193.448 400.058 193.812C395.508 200.182 389.229 205.096 381.221 208.554C373.213 211.83 364.477 213.468 355.013 213.468C342.637 213.468 332.081 210.465 323.345 204.459C314.791 198.271 310.514 188.716 310.514 175.794C310.514 162.69 315.428 152.407 325.256 144.945C335.266 137.301 349.007 133.479 366.479 133.479H400.331C401.059 133.479 401.423 133.115 401.423 132.387V117.099C401.423 105.815 398.329 96.806 392.141 90.072C385.953 83.338 376.216 79.971 362.93 79.971C352.738 79.971 344.275 82.064 337.541 86.25C330.807 90.436 326.712 96.169 325.256 103.449C324.71 105.269 323.618 105.997 321.98 105.633L319.25 105.087C317.43 104.723 316.611 103.904 316.793 102.63C318.613 93.53 323.709 86.25 332.081 80.79C340.453 75.148 350.918 72.327 363.476 72.327ZM355.286 206.097C367.662 206.097 378.4 203.094 387.5 197.088C396.782 191.082 401.423 182.619 401.423 171.699V141.942C401.423 141.214 401.059 140.85 400.331 140.85H366.206C352.01 140.85 340.544 143.944 331.808 150.132C323.072 156.138 318.704 164.601 318.704 175.521C318.704 185.531 322.071 193.175 328.805 198.453C335.539 203.549 344.366 206.097 355.286 206.097Z" fill="#1E1E1E"/>
<path d="M504.344 213.468C491.968 213.468 481.412 210.192 472.676 203.64C464.122 197.088 458.48 188.352 455.75 177.432C453.566 169.424 452.474 157.776 452.474 142.488C452.474 128.474 453.566 117.099 455.75 108.363C458.48 97.443 464.122 88.707 472.676 82.155C481.23 75.603 491.786 72.327 504.344 72.327C516.72 72.327 527.367 75.512 536.285 81.882C545.385 88.252 551.118 96.169 553.484 105.633C554.212 108.363 554.667 110.638 554.849 112.458V113.004C554.849 114.278 554.03 115.097 552.392 115.461L549.662 115.734H549.116C547.842 115.734 547.023 114.915 546.659 113.277L545.84 109.455C544.202 101.083 539.561 94.076 531.917 88.434C524.455 82.792 515.264 79.971 504.344 79.971C493.242 79.971 483.96 82.974 476.498 88.98C469.218 94.804 464.668 102.539 462.848 112.185C461.392 119.829 460.664 130.021 460.664 142.761C460.664 155.683 461.392 165.966 462.848 173.61C464.85 183.438 469.491 191.264 476.771 197.088C484.051 202.912 493.242 205.824 504.344 205.824C515.082 205.824 524.273 203.094 531.917 197.634C539.743 191.992 544.475 184.985 546.113 176.613V175.521L546.386 174.975C546.386 174.065 546.659 173.428 547.205 173.064C547.751 172.518 548.479 172.336 549.389 172.518L551.846 172.791C553.666 173.155 554.485 174.156 554.303 175.794C554.121 176.158 554.03 176.704 554.03 177.432C554.03 178.16 553.848 179.07 553.484 180.162C551.482 189.808 545.931 197.816 536.831 204.186C527.731 210.374 516.902 213.468 504.344 213.468Z" fill="#1E1E1E"/>
<path d="M645.694 203.64C647.514 203.64 648.424 204.55 648.424 206.37V208.554C648.424 210.374 647.514 211.284 645.694 211.284H639.688C627.676 211.284 618.485 208.918 612.115 204.186C605.927 199.272 602.833 190.354 602.833 177.432V82.974C602.833 82.246 602.469 81.882 601.741 81.882H585.088C583.268 81.882 582.358 80.972 582.358 79.152V77.241C582.358 75.421 583.268 74.511 585.088 74.511H601.741C602.469 74.511 602.833 74.147 602.833 73.419V42.57C602.833 40.75 603.743 39.84 605.563 39.84H608.02C609.84 39.84 610.75 40.75 610.75 42.57V73.419C610.75 74.147 611.114 74.511 611.842 74.511H645.148C646.968 74.511 647.878 75.421 647.878 77.241V79.152C647.878 80.972 646.968 81.882 645.148 81.882H611.842C611.114 81.882 610.75 82.246 610.75 82.974V176.613C610.75 186.805 613.116 193.903 617.848 197.907C622.58 201.729 630.042 203.64 640.234 203.64H645.694Z" fill="#1E1E1E"/>
<path d="M747.664 213.468C727.098 213.468 710.809 208.827 698.797 199.545C686.967 190.263 681.052 177.887 681.052 162.417V153.954C681.052 152.134 681.962 151.224 683.782 151.224H697.159C698.979 151.224 699.889 152.134 699.889 153.954V161.325C699.889 171.881 704.257 180.435 712.993 186.987C721.729 193.357 733.832 196.542 749.302 196.542C763.316 196.542 773.963 193.63 781.243 187.806C788.523 181.8 792.163 173.883 792.163 164.055C792.163 157.685 790.434 152.225 786.976 147.675C783.7 143.125 778.513 138.848 771.415 134.844C764.499 130.84 754.671 126.199 741.931 120.921C728.281 115.461 717.634 110.729 709.99 106.725C702.528 102.539 696.431 97.261 691.699 90.891C687.149 84.339 684.874 76.149 684.874 66.321C684.874 51.033 690.152 39.203 700.708 30.831C711.446 22.277 726.097 18 744.661 18C764.863 18 780.788 22.732 792.436 32.196C804.084 41.66 809.908 54.218 809.908 69.87V75.876C809.908 77.696 808.998 78.606 807.178 78.606H793.528C791.708 78.606 790.798 77.696 790.798 75.876V70.962C790.798 60.406 786.612 51.761 778.24 45.027C770.05 38.293 758.584 34.926 743.842 34.926C730.92 34.926 721.001 37.565 714.085 42.843C707.169 48.121 703.711 55.765 703.711 65.775C703.711 72.327 705.349 77.787 708.625 82.155C712.083 86.341 716.906 90.072 723.094 93.348C729.464 96.442 739.201 100.537 752.305 105.633C765.591 111.093 776.238 116.189 784.246 120.921C792.436 125.653 798.988 131.477 803.902 138.393C808.998 145.127 811.546 153.408 811.546 163.236C811.546 178.524 805.904 190.718 794.62 199.818C783.336 208.918 767.684 213.468 747.664 213.468Z" fill="#4A72A2"/>
<path d="M900.267 213.468C887.163 213.468 875.879 210.101 866.415 203.367C857.133 196.451 850.763 187.169 847.305 175.521C844.939 167.513 843.756 156.229 843.756 141.669C843.756 128.565 844.939 117.463 847.305 108.363C850.581 97.079 856.951 88.07 866.415 81.336C875.879 74.42 887.163 70.962 900.267 70.962C913.553 70.962 925.019 74.329 934.665 81.063C944.493 87.797 950.863 96.169 953.775 106.179C954.685 109.455 955.231 112.185 955.413 114.369V114.915C955.413 116.189 954.594 117.008 952.956 117.372L939.306 119.283H938.76C937.486 119.283 936.667 118.464 936.303 116.826L935.484 112.731C933.846 105.815 929.842 99.991 923.472 95.259C917.102 90.345 909.367 87.888 900.267 87.888C891.167 87.888 883.523 90.345 877.335 95.259C871.329 99.991 867.416 106.361 865.596 114.369C863.958 121.285 863.139 130.476 863.139 141.942C863.139 153.954 863.958 163.236 865.596 169.788C867.416 177.978 871.329 184.53 877.335 189.444C883.523 194.176 891.167 196.542 900.267 196.542C909.185 196.542 916.829 194.267 923.199 189.717C929.751 184.985 933.846 178.979 935.484 171.699V170.607L935.757 169.515C935.939 167.695 937.031 166.967 939.033 167.331L952.41 169.515C954.23 169.879 955.049 170.88 954.867 172.518L953.775 177.978C951.045 188.534 944.766 197.088 934.938 203.64C925.11 210.192 913.553 213.468 900.267 213.468Z" fill="#4A72A2"/>
<path d="M1041.85 213.468C1028.74 213.468 1017.46 210.101 1007.99 203.367C998.529 196.633 991.977 187.351 988.337 175.521C985.789 167.149 984.515 155.956 984.515 141.942C984.515 127.928 985.789 116.826 988.337 108.636C991.795 96.988 998.256 87.797 1007.72 81.063C1017.18 74.329 1028.65 70.962 1042.12 70.962C1055.04 70.962 1066.14 74.329 1075.42 81.063C1084.89 87.797 1091.35 96.897 1094.81 108.363C1097.35 116.189 1098.63 127.382 1098.63 141.942C1098.63 156.684 1097.35 167.877 1094.81 175.521C1091.35 187.351 1084.89 196.633 1075.42 203.367C1066.14 210.101 1054.95 213.468 1041.85 213.468ZM1041.85 196.542C1050.58 196.542 1058.04 194.176 1064.23 189.444C1070.42 184.53 1074.61 177.978 1076.79 169.788C1078.43 163.236 1079.25 154.045 1079.25 142.215C1079.25 130.203 1078.52 121.012 1077.06 114.642C1074.88 106.452 1070.6 99.991 1064.23 95.259C1058.04 90.345 1050.49 87.888 1041.57 87.888C1032.65 87.888 1025.1 90.345 1018.91 95.259C1012.73 99.991 1008.54 106.452 1006.36 114.642C1004.9 121.012 1004.17 130.203 1004.17 142.215C1004.17 154.227 1004.9 163.418 1006.36 169.788C1008.36 177.978 1012.45 184.53 1018.64 189.444C1025.01 194.176 1032.75 196.542 1041.85 196.542Z" fill="#4A72A2"/>
<path d="M1193.61 71.781C1199.62 71.781 1204.8 72.964 1209.17 75.33C1210.63 76.058 1211.17 77.241 1210.81 78.879L1207.81 92.256C1207.26 94.076 1206.08 94.622 1204.26 93.894C1201.16 92.62 1197.62 91.983 1193.61 91.983L1190.06 92.256C1180.6 92.62 1172.77 96.169 1166.58 102.903C1160.4 109.455 1157.3 117.827 1157.3 128.019V208.554C1157.3 210.374 1156.39 211.284 1154.57 211.284H1140.65C1138.83 211.284 1137.92 210.374 1137.92 208.554V75.876C1137.92 74.056 1138.83 73.146 1140.65 73.146H1154.57C1156.39 73.146 1157.3 74.056 1157.3 75.876V92.529C1157.3 93.075 1157.39 93.439 1157.58 93.621C1157.94 93.621 1158.21 93.439 1158.39 93.075C1162.22 86.341 1167.04 81.154 1172.86 77.514C1178.87 73.692 1185.79 71.781 1193.61 71.781Z" fill="#4A72A2"/>
<path d="M1341.95 119.01C1342.68 124.106 1343.05 130.476 1343.05 138.12V146.856C1343.05 148.676 1342.14 149.586 1340.32 149.586H1252.14C1251.41 149.586 1251.04 149.95 1251.04 150.678C1251.41 160.688 1251.95 167.149 1252.68 170.061C1254.68 178.251 1258.96 184.712 1265.51 189.444C1272.07 194.176 1280.44 196.542 1290.63 196.542C1298.27 196.542 1305.01 194.813 1310.83 191.355C1316.66 187.897 1321.21 182.983 1324.48 176.613C1325.57 174.975 1326.85 174.611 1328.3 175.521L1338.95 181.8C1340.41 182.71 1340.77 183.984 1340.04 185.622C1335.49 194.358 1328.67 201.274 1319.57 206.37C1310.47 211.284 1300 213.741 1288.17 213.741C1275.25 213.559 1264.42 210.465 1255.69 204.459C1246.95 198.453 1240.67 190.081 1236.85 179.343C1233.57 170.607 1231.93 158.049 1231.93 141.669C1231.93 134.025 1232.03 127.837 1232.21 123.105C1232.57 118.191 1233.3 113.823 1234.39 110.001C1237.49 98.171 1243.67 88.707 1252.96 81.609C1262.42 74.511 1273.79 70.962 1287.08 70.962C1303.64 70.962 1316.38 75.148 1325.3 83.52C1334.22 91.892 1339.77 103.722 1341.95 119.01ZM1287.08 87.888C1278.16 87.888 1270.7 90.254 1264.69 94.986C1258.87 99.536 1255.05 105.724 1253.23 113.55C1252.14 117.372 1251.41 123.56 1251.04 132.114C1251.04 132.842 1251.41 133.206 1252.14 133.206H1322.84C1323.57 133.206 1323.94 132.842 1323.94 132.114C1323.57 123.924 1323.03 118.1 1322.3 114.642C1320.3 106.452 1316.2 99.991 1310.01 95.259C1304.01 90.345 1296.36 87.888 1287.08 87.888Z" fill="#4A72A2"/>
</svg>
