<svg width="355" height="232" viewBox="0 0 355 232" fill="none" xmlns="http://www.w3.org/2000/svg">
<path d="M154.755 25.098C154.755 26.918 153.845 27.828 152.025 27.828H45.282C44.554 27.828 44.19 28.192 44.19 28.92V110.547C44.19 111.275 44.554 111.639 45.282 111.639H122.268C124.088 111.639 124.998 112.549 124.998 114.369V116.553C124.998 118.373 124.088 119.283 122.268 119.283H45.282C44.554 119.283 44.19 119.647 44.19 120.375V202.548C44.19 203.276 44.554 203.64 45.282 203.64H152.025C153.845 203.64 154.755 204.55 154.755 206.37V208.554C154.755 210.374 153.845 211.284 152.025 211.284H38.73C36.91 211.284 36 210.374 36 208.554V22.914C36 21.094 36.91 20.184 38.73 20.184H152.025C153.845 20.184 154.755 21.094 154.755 22.914V25.098Z" fill="#1E1E1E"/>
<path d="M254.718 213.468C234.152 213.468 217.863 208.827 205.851 199.545C194.021 190.263 188.106 177.887 188.106 162.417V153.954C188.106 152.134 189.016 151.224 190.836 151.224H204.213C206.033 151.224 206.943 152.134 206.943 153.954V161.325C206.943 171.881 211.311 180.435 220.047 186.987C228.783 193.357 240.886 196.542 256.356 196.542C270.37 196.542 281.017 193.63 288.297 187.806C295.577 181.8 299.217 173.883 299.217 164.055C299.217 157.685 297.488 152.225 294.03 147.675C290.754 143.125 285.567 138.848 278.469 134.844C271.553 130.84 261.725 126.199 248.985 120.921C235.335 115.461 224.688 110.729 217.044 106.725C209.582 102.539 203.485 97.261 198.753 90.891C194.203 84.339 191.928 76.149 191.928 66.321C191.928 51.033 197.206 39.203 207.762 30.831C218.5 22.277 233.151 18 251.715 18C271.917 18 287.842 22.732 299.49 32.196C311.138 41.66 316.962 54.218 316.962 69.87V75.876C316.962 77.696 316.052 78.606 314.232 78.606H300.582C298.762 78.606 297.852 77.696 297.852 75.876V70.962C297.852 60.406 293.666 51.761 285.294 45.027C277.104 38.293 265.638 34.926 250.896 34.926C237.974 34.926 228.055 37.565 221.139 42.843C214.223 48.121 210.765 55.765 210.765 65.775C210.765 72.327 212.403 77.787 215.679 82.155C219.137 86.341 223.96 90.072 230.148 93.348C236.518 96.442 246.255 100.537 259.359 105.633C272.645 111.093 283.292 116.189 291.3 120.921C299.49 125.653 306.042 131.477 310.956 138.393C316.052 145.127 318.6 153.408 318.6 163.236C318.6 178.524 312.958 190.718 301.674 199.818C290.39 208.918 274.738 213.468 254.718 213.468Z" fill="#4A72A2"/>
</svg>
