<svg width="355" height="232" viewBox="0 0 355 232" fill="none" xmlns="http://www.w3.org/2000/svg">
<path d="M155.091 25.098C155.091 26.918 154.181 27.828 152.361 27.828H45.6179C44.8899 27.828 44.5259 28.192 44.5259 28.92V110.547C44.5259 111.275 44.8899 111.639 45.6179 111.639H122.604C124.424 111.639 125.334 112.549 125.334 114.369V116.553C125.334 118.373 124.424 119.283 122.604 119.283H45.6179C44.8899 119.283 44.5259 119.647 44.5259 120.375V202.548C44.5259 203.276 44.8899 203.64 45.6179 203.64H152.361C154.181 203.64 155.091 204.55 155.091 206.37V208.554C155.091 210.374 154.181 211.284 152.361 211.284H39.0659C37.2459 211.284 36.3359 210.374 36.3359 208.554V22.914C36.3359 21.094 37.2459 20.184 39.0659 20.184H152.361C154.181 20.184 155.091 21.094 155.091 22.914V25.098Z" fill="#1E1E1E"/>
<path d="M255.054 213.468C234.488 213.468 218.199 208.827 206.187 199.545C194.357 190.263 188.442 177.887 188.442 162.417V153.954C188.442 152.134 189.352 151.224 191.172 151.224H204.549C206.369 151.224 207.279 152.134 207.279 153.954V161.325C207.279 171.881 211.647 180.435 220.383 186.987C229.119 193.357 241.222 196.542 256.692 196.542C270.706 196.542 281.353 193.63 288.633 187.806C295.913 181.8 299.553 173.883 299.553 164.055C299.553 157.685 297.824 152.225 294.366 147.675C291.09 143.125 285.903 138.848 278.805 134.844C271.889 130.84 262.061 126.199 249.321 120.921C235.671 115.461 225.024 110.729 217.38 106.725C209.918 102.539 203.821 97.261 199.089 90.891C194.539 84.339 192.264 76.149 192.264 66.321C192.264 51.033 197.542 39.203 208.098 30.831C218.836 22.277 233.487 18 252.051 18C272.253 18 288.178 22.732 299.826 32.196C311.474 41.66 317.298 54.218 317.298 69.87V75.876C317.298 77.696 316.388 78.606 314.568 78.606H300.918C299.098 78.606 298.188 77.696 298.188 75.876V70.962C298.188 60.406 294.002 51.761 285.63 45.027C277.44 38.293 265.974 34.926 251.232 34.926C238.31 34.926 228.391 37.565 221.475 42.843C214.559 48.121 211.101 55.765 211.101 65.775C211.101 72.327 212.739 77.787 216.015 82.155C219.473 86.341 224.296 90.072 230.484 93.348C236.854 96.442 246.591 100.537 259.695 105.633C272.981 111.093 283.628 116.189 291.636 120.921C299.826 125.653 306.378 131.477 311.292 138.393C316.388 145.127 318.936 153.408 318.936 163.236C318.936 178.524 313.294 190.718 302.01 199.818C290.726 208.918 275.074 213.468 255.054 213.468Z" fill="#1E1E1E"/>
</svg>
