<svg width="1421" height="418" viewBox="0 0 1421 418" fill="none" xmlns="http://www.w3.org/2000/svg">
<path d="M186.32 131.814C186.32 133.634 185.41 134.544 183.59 134.544H76.8468C76.1188 134.544 75.7548 134.908 75.7548 135.636V217.263C75.7548 217.991 76.1188 218.355 76.8468 218.355H153.833C155.653 218.355 156.563 219.265 156.563 221.085V223.269C156.563 225.089 155.653 225.999 153.833 225.999H76.8468C76.1188 225.999 75.7548 226.363 75.7548 227.091V309.264C75.7548 309.992 76.1188 310.356 76.8468 310.356H183.59C185.41 310.356 186.32 311.266 186.32 313.086V315.27C186.32 317.09 185.41 318 183.59 318H70.2948C68.4748 318 67.5648 317.09 67.5648 315.27V129.63C67.5648 127.81 68.4748 126.9 70.2948 126.9H183.59C185.41 126.9 186.32 127.81 186.32 129.63V131.814ZM216.668 318C215.576 318 214.848 317.636 214.484 316.908C214.12 316.18 214.302 315.452 215.03 314.724L261.167 250.569C261.531 250.023 261.531 249.477 261.167 248.931L215.03 184.503C214.666 184.139 214.484 183.593 214.484 182.865C214.484 182.501 214.666 182.137 215.03 181.773C215.394 181.409 215.94 181.227 216.668 181.227H219.671C221.127 181.227 222.219 181.773 222.947 182.865L264.989 242.106C265.171 242.288 265.444 242.379 265.808 242.379C266.172 242.379 266.445 242.288 266.627 242.106L308.396 182.865C309.124 181.773 310.216 181.227 311.672 181.227H314.948C316.04 181.227 316.768 181.591 317.132 182.319C317.496 182.865 317.314 183.593 316.586 184.503L270.449 248.931C270.267 249.477 270.267 250.023 270.449 250.569L316.586 314.724C316.95 315.088 317.132 315.634 317.132 316.362C317.132 316.726 316.95 317.09 316.586 317.454C316.222 317.818 315.676 318 314.948 318H311.672C310.216 318 309.124 317.454 308.396 316.362L266.9 257.121C266.718 256.757 266.445 256.575 266.081 256.575C265.717 256.575 265.444 256.757 265.262 257.121L222.947 316.362C222.219 317.454 221.127 318 219.671 318H216.668ZM395.041 179.043C410.511 179.043 422.068 183.138 429.712 191.328C437.356 199.336 441.178 210.347 441.178 224.361V315.27C441.178 317.09 440.268 318 438.448 318H435.718C433.898 318 432.988 317.09 432.988 315.27V301.074C432.988 300.71 432.806 300.437 432.442 300.255C432.26 300.073 431.987 300.164 431.623 300.528C427.073 306.898 420.794 311.812 412.786 315.27C404.778 318.546 396.042 320.184 386.578 320.184C374.202 320.184 363.646 317.181 354.91 311.175C346.356 304.987 342.079 295.432 342.079 282.51C342.079 269.406 346.993 259.123 356.821 251.661C366.831 244.017 380.572 240.195 398.044 240.195H431.896C432.624 240.195 432.988 239.831 432.988 239.103V223.815C432.988 212.531 429.894 203.522 423.706 196.788C417.518 190.054 407.781 186.687 394.495 186.687C384.303 186.687 375.84 188.78 369.106 192.966C362.372 197.152 358.277 202.885 356.821 210.165C356.275 211.985 355.183 212.713 353.545 212.349L350.815 211.803C348.995 211.439 348.176 210.62 348.358 209.346C350.178 200.246 355.274 192.966 363.646 187.506C372.018 181.864 382.483 179.043 395.041 179.043ZM386.851 312.813C399.227 312.813 409.965 309.81 419.065 303.804C428.347 297.798 432.988 289.335 432.988 278.415V248.658C432.988 247.93 432.624 247.566 431.896 247.566H397.771C383.575 247.566 372.109 250.66 363.373 256.848C354.637 262.854 350.269 271.317 350.269 282.237C350.269 292.247 353.636 299.891 360.37 305.169C367.104 310.265 375.931 312.813 386.851 312.813ZM535.909 320.184C523.533 320.184 512.977 316.908 504.241 310.356C495.687 303.804 490.045 295.068 487.315 284.148C485.131 276.14 484.039 264.492 484.039 249.204C484.039 235.19 485.131 223.815 487.315 215.079C490.045 204.159 495.687 195.423 504.241 188.871C512.795 182.319 523.351 179.043 535.909 179.043C548.285 179.043 558.932 182.228 567.85 188.598C576.95 194.968 582.683 202.885 585.049 212.349C585.777 215.079 586.232 217.354 586.414 219.174V219.72C586.414 220.994 585.595 221.813 583.957 222.177L581.227 222.45H580.681C579.407 222.45 578.588 221.631 578.224 219.993L577.405 216.171C575.767 207.799 571.126 200.792 563.482 195.15C556.02 189.508 546.829 186.687 535.909 186.687C524.807 186.687 515.525 189.69 508.063 195.696C500.783 201.52 496.233 209.255 494.413 218.901C492.957 226.545 492.229 236.737 492.229 249.477C492.229 262.399 492.957 272.682 494.413 280.326C496.415 290.154 501.056 297.98 508.336 303.804C515.616 309.628 524.807 312.54 535.909 312.54C546.647 312.54 555.838 309.81 563.482 304.35C571.308 298.708 576.04 291.701 577.678 283.329V282.237L577.951 281.691C577.951 280.781 578.224 280.144 578.77 279.78C579.316 279.234 580.044 279.052 580.954 279.234L583.411 279.507C585.231 279.871 586.05 280.872 585.868 282.51C585.686 282.874 585.595 283.42 585.595 284.148C585.595 284.876 585.413 285.786 585.049 286.878C583.047 296.524 577.496 304.532 568.396 310.902C559.296 317.09 548.467 320.184 535.909 320.184ZM677.259 310.356C679.079 310.356 679.989 311.266 679.989 313.086V315.27C679.989 317.09 679.079 318 677.259 318H671.253C659.241 318 650.05 315.634 643.68 310.902C637.492 305.988 634.398 297.07 634.398 284.148V189.69C634.398 188.962 634.034 188.598 633.306 188.598H616.653C614.833 188.598 613.923 187.688 613.923 185.868V183.957C613.923 182.137 614.833 181.227 616.653 181.227H633.306C634.034 181.227 634.398 180.863 634.398 180.135V149.286C634.398 147.466 635.308 146.556 637.128 146.556H639.585C641.405 146.556 642.315 147.466 642.315 149.286V180.135C642.315 180.863 642.679 181.227 643.407 181.227H676.713C678.533 181.227 679.443 182.137 679.443 183.957V185.868C679.443 187.688 678.533 188.598 676.713 188.598H643.407C642.679 188.598 642.315 188.962 642.315 189.69V283.329C642.315 293.521 644.681 300.619 649.413 304.623C654.145 308.445 661.607 310.356 671.799 310.356H677.259ZM779.229 320.184C758.663 320.184 742.374 315.543 730.362 306.261C718.532 296.979 712.617 284.603 712.617 269.133V260.67C712.617 258.85 713.527 257.94 715.347 257.94H728.724C730.544 257.94 731.454 258.85 731.454 260.67V268.041C731.454 278.597 735.822 287.151 744.558 293.703C753.294 300.073 765.397 303.258 780.867 303.258C794.881 303.258 805.528 300.346 812.808 294.522C820.088 288.516 823.728 280.599 823.728 270.771C823.728 264.401 821.999 258.941 818.541 254.391C815.265 249.841 810.078 245.564 802.98 241.56C796.064 237.556 786.236 232.915 773.496 227.637C759.846 222.177 749.199 217.445 741.555 213.441C734.093 209.255 727.996 203.977 723.264 197.607C718.714 191.055 716.439 182.865 716.439 173.037C716.439 157.749 721.717 145.919 732.273 137.547C743.011 128.993 757.662 124.716 776.226 124.716C796.428 124.716 812.353 129.448 824.001 138.912C835.649 148.376 841.473 160.934 841.473 176.586V182.592C841.473 184.412 840.563 185.322 838.743 185.322H825.093C823.273 185.322 822.363 184.412 822.363 182.592V177.678C822.363 167.122 818.177 158.477 809.805 151.743C801.615 145.009 790.149 141.642 775.407 141.642C762.485 141.642 752.566 144.281 745.65 149.559C738.734 154.837 735.276 162.481 735.276 172.491C735.276 179.043 736.914 184.503 740.19 188.871C743.648 193.057 748.471 196.788 754.659 200.064C761.029 203.158 770.766 207.253 783.87 212.349C797.156 217.809 807.803 222.905 815.811 227.637C824.001 232.369 830.553 238.193 835.467 245.109C840.563 251.843 843.111 260.124 843.111 269.952C843.111 285.24 837.469 297.434 826.185 306.534C814.901 315.634 799.249 320.184 779.229 320.184ZM931.832 320.184C918.728 320.184 907.444 316.817 897.98 310.083C888.698 303.167 882.328 293.885 878.87 282.237C876.504 274.229 875.321 262.945 875.321 248.385C875.321 235.281 876.504 224.179 878.87 215.079C882.146 203.795 888.516 194.786 897.98 188.052C907.444 181.136 918.728 177.678 931.832 177.678C945.118 177.678 956.584 181.045 966.23 187.779C976.058 194.513 982.428 202.885 985.34 212.895C986.25 216.171 986.796 218.901 986.978 221.085V221.631C986.978 222.905 986.159 223.724 984.521 224.088L970.871 225.999H970.325C969.051 225.999 968.232 225.18 967.868 223.542L967.049 219.447C965.411 212.531 961.407 206.707 955.037 201.975C948.667 197.061 940.932 194.604 931.832 194.604C922.732 194.604 915.088 197.061 908.9 201.975C902.894 206.707 898.981 213.077 897.161 221.085C895.523 228.001 894.704 237.192 894.704 248.658C894.704 260.67 895.523 269.952 897.161 276.504C898.981 284.694 902.894 291.246 908.9 296.16C915.088 300.892 922.732 303.258 931.832 303.258C940.75 303.258 948.394 300.983 954.764 296.433C961.316 291.701 965.411 285.695 967.049 278.415V277.323L967.322 276.231C967.504 274.411 968.596 273.683 970.598 274.047L983.975 276.231C985.795 276.595 986.614 277.596 986.432 279.234L985.34 284.694C982.61 295.25 976.331 303.804 966.503 310.356C956.675 316.908 945.118 320.184 931.832 320.184ZM1073.41 320.184C1060.31 320.184 1049.02 316.817 1039.56 310.083C1030.09 303.349 1023.54 294.067 1019.9 282.237C1017.35 273.865 1016.08 262.672 1016.08 248.658C1016.08 234.644 1017.35 223.542 1019.9 215.352C1023.36 203.704 1029.82 194.513 1039.28 187.779C1048.75 181.045 1060.21 177.678 1073.68 177.678C1086.6 177.678 1097.71 181.045 1106.99 187.779C1116.45 194.513 1122.91 203.613 1126.37 215.079C1128.92 222.905 1130.19 234.098 1130.19 248.658C1130.19 263.4 1128.92 274.593 1126.37 282.237C1122.91 294.067 1116.45 303.349 1106.99 310.083C1097.71 316.817 1086.51 320.184 1073.41 320.184ZM1073.41 303.258C1082.15 303.258 1089.61 300.892 1095.8 296.16C1101.98 291.246 1106.17 284.694 1108.35 276.504C1109.99 269.952 1110.81 260.761 1110.81 248.931C1110.81 236.919 1110.08 227.728 1108.63 221.358C1106.44 213.168 1102.17 206.707 1095.8 201.975C1089.61 197.061 1082.05 194.604 1073.14 194.604C1064.22 194.604 1056.67 197.061 1050.48 201.975C1044.29 206.707 1040.1 213.168 1037.92 221.358C1036.46 227.728 1035.74 236.919 1035.74 248.931C1035.74 260.943 1036.46 270.134 1037.92 276.504C1039.92 284.694 1044.02 291.246 1050.2 296.16C1056.57 300.892 1064.31 303.258 1073.41 303.258ZM1225.18 178.497C1231.18 178.497 1236.37 179.68 1240.74 182.046C1242.19 182.774 1242.74 183.957 1242.38 185.595L1239.37 198.972C1238.83 200.792 1237.64 201.338 1235.82 200.61C1232.73 199.336 1229.18 198.699 1225.18 198.699L1221.63 198.972C1212.16 199.336 1204.34 202.885 1198.15 209.619C1191.96 216.171 1188.87 224.543 1188.87 234.735V315.27C1188.87 317.09 1187.96 318 1186.14 318H1172.21C1170.39 318 1169.48 317.09 1169.48 315.27V182.592C1169.48 180.772 1170.39 179.862 1172.21 179.862H1186.14C1187.96 179.862 1188.87 180.772 1188.87 182.592V199.245C1188.87 199.791 1188.96 200.155 1189.14 200.337C1189.5 200.337 1189.78 200.155 1189.96 199.791C1193.78 193.057 1198.6 187.87 1204.43 184.23C1210.43 180.408 1217.35 178.497 1225.18 178.497ZM1373.52 225.726C1374.25 230.822 1374.61 237.192 1374.61 244.836V253.572C1374.61 255.392 1373.7 256.302 1371.88 256.302H1283.7C1282.97 256.302 1282.61 256.666 1282.61 257.394C1282.97 267.404 1283.52 273.865 1284.25 276.777C1286.25 284.967 1290.53 291.428 1297.08 296.16C1303.63 300.892 1312 303.258 1322.19 303.258C1329.84 303.258 1336.57 301.529 1342.4 298.071C1348.22 294.613 1352.77 289.699 1356.05 283.329C1357.14 281.691 1358.41 281.327 1359.87 282.237L1370.51 288.516C1371.97 289.426 1372.33 290.7 1371.61 292.338C1367.06 301.074 1360.23 307.99 1351.13 313.086C1342.03 318 1331.57 320.457 1319.74 320.457C1306.81 320.275 1295.99 317.181 1287.25 311.175C1278.51 305.169 1272.23 296.797 1268.41 286.059C1265.14 277.323 1263.5 264.765 1263.5 248.385C1263.5 240.741 1263.59 234.553 1263.77 229.821C1264.14 224.907 1264.86 220.539 1265.96 216.717C1269.05 204.887 1275.24 195.423 1284.52 188.325C1293.98 181.227 1305.36 177.678 1318.64 177.678C1335.21 177.678 1347.95 181.864 1356.86 190.236C1365.78 198.608 1371.33 210.438 1373.52 225.726ZM1318.64 194.604C1309.73 194.604 1302.26 196.97 1296.26 201.702C1290.43 206.252 1286.61 212.44 1284.79 220.266C1283.7 224.088 1282.97 230.276 1282.61 238.83C1282.61 239.558 1282.97 239.922 1283.7 239.922H1354.41C1355.14 239.922 1355.5 239.558 1355.5 238.83C1355.14 230.64 1354.59 224.816 1353.86 221.358C1351.86 213.168 1347.76 206.707 1341.58 201.975C1335.57 197.061 1327.93 194.604 1318.64 194.604Z" fill="#1E1E1E"/>
</svg>
