<svg width="20" height="20" viewBox="0 0 20 20" fill="none" xmlns="http://www.w3.org/2000/svg">
<path d="M11.6668 1.66667H5.00016C4.55814 1.66667 4.13421 1.84227 3.82165 2.15483C3.50909 2.46739 3.3335 2.89131 3.3335 3.33334V16.6667C3.3335 17.1087 3.50909 17.5326 3.82165 17.8452C4.13421 18.1577 4.55814 18.3333 5.00016 18.3333H15.0002C15.4422 18.3333 15.8661 18.1577 16.1787 17.8452C16.4912 17.5326 16.6668 17.1087 16.6668 16.6667V6.66667M11.6668 1.66667L16.6668 6.66667M11.6668 1.66667L11.6668 6.66667H16.6668M13.3335 10.8333H6.66683M13.3335 14.1667H6.66683M8.3335 7.5H6.66683" stroke="#1E1E1E" stroke-width="2" stroke-linecap="round" stroke-linejoin="round"/>
</svg>
