<svg width="40" height="40" viewBox="0 0 40 40" fill="none" xmlns="http://www.w3.org/2000/svg">
<path d="M23.3332 3.33333H9.99984C9.11578 3.33333 8.26794 3.68452 7.64281 4.30964C7.01769 4.93476 6.6665 5.78261 6.6665 6.66666V33.3333C6.6665 34.2174 7.01769 35.0652 7.64281 35.6903C8.26794 36.3155 9.11578 36.6667 9.99984 36.6667H29.9998C30.8839 36.6667 31.7317 36.3155 32.3569 35.6903C32.982 35.0652 33.3332 34.2174 33.3332 33.3333V13.3333M23.3332 3.33333L33.3332 13.3333M23.3332 3.33333L23.3332 13.3333H33.3332M26.6665 21.6667H13.3332M26.6665 28.3333H13.3332M16.6665 15H13.3332" stroke="#1E1E1E" stroke-width="3.5" stroke-linecap="round" stroke-linejoin="round"/>
</svg>
