<svg width="32" height="32" viewBox="0 0 32 32" fill="none" xmlns="http://www.w3.org/2000/svg">
<path d="M18.6668 2.66667H8.00016C7.29292 2.66667 6.61464 2.94762 6.11454 3.44772C5.61445 3.94782 5.3335 4.62609 5.3335 5.33334V26.6667C5.3335 27.3739 5.61445 28.0522 6.11454 28.5523C6.61464 29.0524 7.29292 29.3333 8.00016 29.3333H24.0002C24.7074 29.3333 25.3857 29.0524 25.8858 28.5523C26.3859 28.0522 26.6668 27.3739 26.6668 26.6667V10.6667M18.6668 2.66667L26.6668 10.6667M18.6668 2.66667L18.6668 10.6667H26.6668M21.3335 17.3333H10.6668M21.3335 22.6667H10.6668M13.3335 12H10.6668" stroke="#1E1E1E" stroke-width="3" stroke-linecap="round" stroke-linejoin="round"/>
</svg>
