<svg width="32" height="32" viewBox="0 0 32 32" fill="none" xmlns="http://www.w3.org/2000/svg">
<path fill-rule="evenodd" clip-rule="evenodd" d="M8.33922 8.15989C8.33922 5.79122 10.1285 3.86667 12.3454 3.86667H19.6546C21.8715 3.86667 23.6607 5.79122 23.6607 8.15989V12.0798C23.6607 16.6175 20.2391 20.293 16 20.293C11.7609 20.293 8.33922 16.6175 8.33922 12.0798V8.15989ZM12.3454 2C10.2252 2 8.37181 3.23352 7.378 5.07087H6.91217C4.73134 5.07087 3 6.9225 3 9.2708C3 11.3895 3.85152 13.171 5.05094 14.6005C5.06113 14.6126 5.07161 14.6245 5.08238 14.636C5.72816 15.3287 6.53895 15.9351 7.47108 16.3153C8.87065 19.559 11.8293 21.8649 15.3161 22.1334V24.2134H12.528C10.7126 24.2134 9.22493 25.8037 9.22493 27.76V28.1333H8.8737C8.39505 28.1333 8.00703 28.5512 8.00703 29.0666C8.00703 29.5821 8.39505 30 8.8737 30H9.22493L23.1403 30L23.4921 30C23.9708 30 24.3588 29.5821 24.3588 29.0666C24.3588 28.5512 23.9708 28.1333 23.4921 28.1333H23.1403V27.76C23.1403 25.8037 21.6526 24.2134 19.8372 24.2134H17.0495V22.0976C20.3767 21.7016 23.1785 19.445 24.5289 16.3153C25.461 15.9351 26.2718 15.3287 26.9176 14.636C26.9284 14.6245 26.9389 14.6126 26.9491 14.6005C28.1485 13.171 29 11.3895 29 9.2708C29 6.9225 27.2687 5.07087 25.0878 5.07087H24.622C23.6282 3.23352 21.7748 2 19.6546 2H12.3454ZM10.9583 28.1333H21.4069V27.76C21.4069 26.8417 20.7019 26.0801 19.8372 26.0801H12.528C11.6633 26.0801 10.9583 26.8417 10.9583 27.76V28.1333ZM6.54605 6.96855C5.49877 7.14873 4.73333 8.09386 4.73333 9.2708C4.73333 10.8027 5.33733 12.151 6.32155 13.3305C6.41416 13.429 6.51061 13.5246 6.61062 13.6167C6.51975 13.0554 6.47188 12.4771 6.47188 11.8841V7.96416C6.47188 7.6285 6.49636 7.29541 6.54605 6.96855ZM25.5281 7.96416C25.5281 7.62849 25.5036 7.29541 25.454 6.96855C26.5012 7.14873 27.2667 8.09386 27.2667 9.2708C27.2667 10.8027 26.6627 12.151 25.6784 13.3305C25.5858 13.429 25.4894 13.5246 25.3894 13.6167C25.4803 13.0554 25.5281 12.4771 25.5281 11.8841V7.96416Z" fill="#1E1E1E"/>
</svg>
