<svg width="32" height="32" viewBox="0 0 32 32" fill="none" xmlns="http://www.w3.org/2000/svg">
<path d="M16.2109 22.2999V25.2398" stroke="#1E1E1E" stroke-width="2" stroke-linecap="round" stroke-linejoin="round"/>
<path d="M9.18262 30H23.2388V28.6001C23.2388 27.0601 21.9737 25.8001 20.4275 25.8001H11.9939C10.4477 25.8001 9.18262 27.0601 9.18262 28.6001V30Z" stroke="#1E1E1E" stroke-width="2" stroke-miterlimit="10"/>
<path d="M7.77734 30H24.6448" stroke="#1E1E1E" stroke-width="2" stroke-linecap="round" stroke-linejoin="round"/>
<path d="M16 21.5996C10.5602 21.5996 6.16064 17.2177 6.16064 11.7998V7.59989C6.16064 4.50595 8.6767 2 11.7831 2H20.2168C23.3233 2 25.8393 4.50595 25.8393 7.59989V11.7998C25.8393 17.2177 21.4397 21.5996 16 21.5996Z" stroke="#1E1E1E" stroke-width="2" stroke-linecap="round" stroke-linejoin="round"/>
<path d="M6.82127 15.5101C5.76706 15.1741 4.83935 14.5581 4.10843 13.8301C2.84337 12.4301 2 10.7501 2 8.79015C2 6.83019 3.54618 5.29022 5.51405 5.29022H6.4277C6.14658 5.93421 6.00602 6.6482 6.00602 7.39018V11.5901C6.00602 12.9901 6.3012 14.3061 6.82127 15.5101Z" stroke="#1E1E1E" stroke-width="2" stroke-linecap="round" stroke-linejoin="round"/>
<path d="M25.1787 15.5101C26.2329 15.1741 27.1606 14.5581 27.8916 13.8301C29.1566 12.4301 30 10.7501 30 8.79015C30 6.83019 28.4538 5.29022 26.4859 5.29022H25.5723C25.8534 5.93421 25.994 6.6482 25.994 7.39018V11.5901C25.994 12.9901 25.6988 14.3061 25.1787 15.5101Z" stroke="#1E1E1E" stroke-width="2" stroke-linecap="round" stroke-linejoin="round"/>
</svg>
